# File created by Blade
# Date/Time:  Wed Apr 08 14:10:35 2015
# Frame Rate: 120.000 fps
#------------------------------------------------------
:FULLY-SPECIFIED
:DEGREES
363
root -0.002840 34.031250 -2.333657 29.486443 5.102461 1.309783
Spine 8.900010 -6.341643 -2.596328
Head -28.543608 -4.451152 7.202578
LeftShoulder -24.444395 60.391789 8.947126
LeftArm 27.984597 2.977518 -60.980246
LeftForeArm 9.887683 -0.000000 -7.346617
LeftHand 6.471820 -0.000000 -10.029333
LeftHandThumb1 -26.253704 0.000000 33.147579
RightShoulder -5.594110 -27.637289 -27.180319
RightArm -7.927390 -22.123366 79.377431
RightForeArm -6.407041 -0.000000 3.831703
RightHand 9.195006 -0.000000 4.519961
RightHandThumb1 -24.326973 -0.000000 -32.862282
LeftUpLeg -50.054865 -7.038347 -0.949878
LeftLeg 47.745264 -0.000000 -0.000000
LeftFoot -6.174902 10.685582 -21.233593
LeftToeBase -16.481516 -0.000000 0.000000
RightUpLeg -57.624503 2.612650 -2.451773
RightLeg 38.992319 -0.000000 -0.000000
RightFoot 12.596223 -14.385641 10.703123
RightToeBase -21.305726 -0.000000 0.000000
364
root 0.001344 33.963864 -2.316344 30.147237 5.025880 1.467318
Spine 9.044790 -6.432268 -2.651207
Head -29.819575 -4.240566 7.110097
LeftShoulder -25.269331 60.761234 7.922408
LeftArm 27.985595 1.380103 -62.241649
LeftForeArm 8.185687 -0.000000 -7.672180
LeftHand 6.562535 -0.000000 -8.286804
LeftHandThumb1 -26.253704 0.000000 33.147579
RightShoulder -5.406713 -28.158217 -27.537061
RightArm -8.208864 -21.835006 80.328683
RightForeArm -5.260833 -0.000000 2.875238
RightHand 10.026901 -0.000000 3.314481
RightHandThumb1 -24.326973 -0.000000 -32.862282
LeftUpLeg -51.772477 -7.389538 -0.729868
LeftLeg 46.499522 -0.000000 -0.000000
LeftFoot -5.788188 10.427049 -21.651504
LeftToeBase -15.451908 -0.000000 0.000000
RightUpLeg -59.166807 2.844004 -3.014329
RightLeg 40.471442 -0.000000 -0.000000
RightFoot 10.251369 -15.526255 10.613074
RightToeBase -20.846660 -0.000000 0.000000
365
root 0.017569 33.870113 -2.297861 30.923138 4.948539 1.726981
Spine 9.011294 -6.502693 -2.766929
Head -31.028755 -4.093372 7.070740
LeftShoulder -25.802024 61.037698 7.108626
LeftArm 28.189893 0.324476 -63.420210
LeftForeArm 6.241605 -0.000000 -7.979677
LeftHand 7.021853 0.000000 -6.012127
LeftHandThumb1 -26.253704 0.000000 33.147579
RightShoulder -5.253823 -28.502536 -27.728088
RightArm -8.422740 -21.451646 81.234933
RightForeArm -4.032170 -0.000000 1.673761
RightHand 10.702122 -0.000000 2.300249
RightHandThumb1 -24.326973 -0.000000 -32.862282
LeftUpLeg -53.524608 -7.886824 -0.447813
LeftLeg 45.146246 -0.000000 -0.000000
LeftFoot -5.221558 10.354602 -22.225855
LeftToeBase -17.394488 -0.000000 0.000000
RightUpLeg -60.863443 2.852429 -3.558866
RightLeg 41.973665 -0.000000 -0.000000
RightFoot 8.153309 -16.482641 10.747761
RightToeBase -20.038098 -0.000000 0.000000
366
root 0.018626 33.751526 -2.266856 31.676758 4.923311 1.760639
Spine 8.923267 -6.520314 -2.663836
Head -32.238581 -3.977252 7.106993
LeftShoulder -25.964223 61.108201 6.511357
LeftArm 28.314515 -0.167892 -64.519720
LeftForeArm 4.551177 -0.000000 -8.100059
LeftHand 7.732740 -0.000000 -2.293152
LeftHandThumb1 -26.253704 0.000000 33.147579
RightShoulder -5.073391 -28.595361 -27.766790
RightArm -8.539894 -21.055212 82.124188
RightForeArm -2.825539 -0.000000 0.216920
RightHand 11.254222 -0.000000 1.340618
RightHandThumb1 -24.326973 -0.000000 -32.862282
LeftUpLeg -55.291308 -7.993067 -0.169921
LeftLeg 44.076395 -0.000000 -0.000000
LeftFoot -4.639570 10.386394 -22.078168
LeftToeBase -16.372365 -0.000000 0.000000
RightUpLeg -62.483969 2.920993 -3.832204
RightLeg 43.370500 -0.000000 -0.000000
RightFoot 6.422717 -17.321734 11.024059
RightToeBase -19.708959 -0.000000 0.000000
367
root 0.016608 33.615105 -2.227043 32.421301 4.872224 1.683408
Spine 8.799403 -6.500011 -2.490264
Head -33.503086 -3.786500 7.197625
LeftShoulder -25.850569 61.030498 6.123988
LeftArm 28.551320 -0.262062 -65.655365
LeftForeArm 2.724662 0.000000 -8.148127
LeftHand 8.420346 0.000000 0.621163
LeftHandThumb1 -26.253704 0.000000 33.147579
RightShoulder -4.795103 -28.393516 -27.632033
RightArm -8.673258 -20.519902 82.961303
RightForeArm -2.231844 -0.000000 -1.154540
RightHand 11.935502 0.000000 0.311212
RightHandThumb1 -24.326973 -0.000000 -32.862282
LeftUpLeg -57.028331 -7.908035 0.140268
LeftLeg 43.146984 -0.000000 -0.000000
LeftFoot -4.117660 10.679444 -21.721195
LeftToeBase -16.075888 -0.000000 0.000000
RightUpLeg -64.048215 2.944760 -3.864185
RightLeg 44.682711 -0.000000 -0.000000
RightFoot 5.387752 -17.726372 11.198205
RightToeBase -19.332786 -0.000000 0.000000
368
root 0.006418 33.461625 -2.181450 33.224814 4.801435 1.479367
Spine 8.565327 -6.368628 -2.214973
Head -34.864863 -3.653629 7.317663
LeftShoulder -25.512221 60.752930 5.889016
LeftArm 28.921389 -0.103334 -66.749013
LeftForeArm 0.932692 0.000000 -8.122592
LeftHand 9.276338 -0.000000 3.590280
LeftHandThumb1 -26.253704 0.000000 33.147579
RightShoulder -4.519859 -28.066091 -27.295950
RightArm -8.728798 -20.064091 83.742352
RightForeArm -1.998554 -0.000000 -2.226059
RightHand 12.766907 -0.000000 -0.710003
RightHandThumb1 -24.326973 -0.000000 -32.862282
LeftUpLeg -58.775642 -7.727341 0.580308
LeftLeg 42.390574 -0.000000 -0.000000
LeftFoot -4.051319 11.080987 -21.876181
LeftToeBase -14.695797 -0.000000 0.000000
RightUpLeg -65.605184 3.022653 -3.744125
RightLeg 45.887087 -0.000000 -0.000000
RightFoot 5.023926 -17.510389 11.151853
RightToeBase -18.403873 -0.000000 0.000000
369
root 0.000726 33.295772 -2.132311 34.083484 4.712792 1.210192
Spine 8.251236 -6.181640 -1.880384
Head -36.384191 -3.504162 7.492482
LeftShoulder -24.925460 60.212088 5.834777
LeftArm 29.364982 0.207231 -67.855352
LeftForeArm -0.582772 0.000000 -7.985727
LeftHand 9.870725 -0.000000 5.643356
LeftHandThumb1 -26.253704 0.000000 33.147579
RightShoulder -4.268897 -27.571447 -26.779532
RightArm -8.721944 -19.870697 84.464752
RightForeArm -1.801878 0.000000 -2.873645
RightHand 13.699398 0.000000 -1.568893
RightHandThumb1 -24.326973 -0.000000 -32.862282
LeftUpLeg -60.536167 -7.490149 1.061996
LeftLeg 41.825960 -0.000000 -0.000000
LeftFoot -3.888736 11.654516 -21.686613
LeftToeBase -15.017461 -0.000000 0.000000
RightUpLeg -67.122208 3.084949 -3.530977
RightLeg 46.978427 -0.000000 -0.000000
RightFoot 5.153128 -16.690476 10.902191
RightToeBase -18.411903 -0.000000 0.000000
370
root -0.004556 33.110985 -2.071785 34.959550 4.535978 0.881178
Spine 7.853165 -5.951612 -1.555947
Head -37.987631 -3.307930 7.696558
LeftShoulder -24.360455 59.484497 5.694270
LeftArm 29.984855 0.720474 -68.819562
LeftForeArm -1.673175 -0.000000 -7.838941
LeftHand 10.445237 -0.000000 6.436531
LeftHandThumb1 -26.253704 0.000000 33.147579
RightShoulder -3.928472 -26.974741 -26.178479
RightArm -8.637612 -20.052131 85.210906
RightForeArm -1.420431 -0.000000 -2.994697
RightHand 14.580430 -0.000000 -2.579324
RightHandThumb1 -24.326973 -0.000000 -32.862282
LeftUpLeg -62.255298 -7.163605 1.576554
LeftLeg 41.547170 -0.000000 -0.000000
LeftFoot -3.873005 12.329032 -21.457009
LeftToeBase -15.191196 -0.000000 0.000000
RightUpLeg -68.566586 3.246055 -3.273296
RightLeg 47.977171 -0.000000 -0.000000
RightFoot 5.379817 -15.896059 10.703715
RightToeBase -16.915815 -0.000000 0.000000
371
root -0.009620 32.902931 -1.999995 35.771220 4.306140 0.541973
Spine 7.466027 -5.684640 -1.285526
Head -39.686026 -3.152394 7.910063
LeftShoulder -23.737166 58.565688 5.584949
LeftArm 30.769112 1.409887 -69.645309
LeftForeArm -2.186038 -0.000000 -7.643653
LeftHand 10.846170 0.000000 6.197333
LeftHandThumb1 -26.253704 0.000000 33.147579
RightShoulder -3.560896 -26.222109 -25.511805
RightArm -8.470723 -20.338355 85.960949
RightForeArm -0.481552 0.000000 -2.728247
RightHand 15.536682 -0.000000 -3.741074
RightHandThumb1 -24.326973 -0.000000 -32.862282
LeftUpLeg -63.884534 -6.790889 2.072497
LeftLeg 41.589089 -0.000000 -0.000000
LeftFoot -3.330757 12.946649 -20.636294
LeftToeBase -16.206071 -0.000000 0.000000
RightUpLeg -69.893199 3.390607 -2.912802
RightLeg 48.950858 -0.000000 -0.000000
RightFoot 5.559626 -15.387106 10.885972
RightToeBase -15.855695 -0.000000 0.000000
372
root -0.006114 32.674629 -1.915973 36.505234 4.078317 0.280810
Spine 7.083866 -5.522631 -1.085474
Head -41.334603 -2.936238 8.088510
LeftShoulder -22.956185 57.467000 5.542409
LeftArm 31.647784 2.155241 -70.424129
LeftForeArm -2.347696 0.000000 -7.396006
LeftHand 11.291264 -0.000000 5.216016
LeftHandThumb1 -26.253704 0.000000 33.147579
RightShoulder -3.149107 -25.303331 -24.866397
RightArm -8.111850 -20.634694 86.705653
RightForeArm 1.122451 -0.000000 -2.253545
RightHand 16.428793 -0.000000 -5.150211
RightHandThumb1 -24.326973 -0.000000 -32.862282
LeftUpLeg -65.324973 -6.569358 2.578198
LeftLeg 41.812064 -0.000000 -0.000000
LeftFoot -2.647447 13.436281 -19.739232
LeftToeBase -15.767781 -0.000000 0.000000
RightUpLeg -71.043495 3.410123 -2.503009
RightLeg 49.921227 -0.000000 -0.000000
RightFoot 5.742517 -15.109296 11.453812
RightToeBase -14.027718 -0.000000 0.000000
373
root -0.004736 32.417721 -1.815159 37.158453 3.830278 0.012034
Spine 6.676010 -5.371019 -0.924219
Head -42.952093 -2.582543 8.226822
LeftShoulder -22.265810 56.278508 5.393866
LeftArm 32.782639 3.122127 -70.977339
LeftForeArm -2.069102 -0.000000 -7.128249
LeftHand 11.839882 -0.000000 4.058700
LeftHandThumb1 -26.253704 0.000000 33.147579
RightShoulder -2.750426 -24.354216 -24.201403
RightArm -7.389224 -20.793147 87.358093
RightForeArm 3.199337 -0.000000 -1.687889
RightHand 17.392608 -0.000000 -6.866359
RightHandThumb1 -24.326973 -0.000000 -32.862282
LeftUpLeg -66.631564 -6.264614 3.012359
LeftLeg 42.378960 -0.000000 -0.000000
LeftFoot -1.698213 13.578073 -18.484714
LeftToeBase -14.928792 -0.000000 0.000000
RightUpLeg -71.985585 3.483205 -2.110564
RightLeg 50.881549 -0.000000 -0.000000
RightFoot 5.770401 -14.875134 11.984299
RightToeBase -12.678206 -0.000000 0.000000
374
root -0.004956 32.135289 -1.700961 37.696679 3.659655 -0.212307
Spine 6.267459 -5.310108 -0.782649
Head -44.451402 -2.299660 8.419733
LeftShoulder -21.429768 55.001007 5.364064
LeftArm 34.072971 4.326443 -71.377141
LeftForeArm -1.622365 0.000000 -6.679099
LeftHand 12.508704 -0.000000 3.625797
LeftHandThumb1 -26.253704 0.000000 33.147579
RightShoulder -2.353407 -23.391592 -23.516980
RightArm -6.272715 -20.657783 87.883439
RightForeArm 5.217595 -0.000000 -0.994199
RightHand 17.957818 -0.000000 -9.094214
RightHandThumb1 -24.326973 -0.000000 -32.862282
LeftUpLeg -67.720666 -6.076854 3.466375
LeftLeg 43.147053 -0.000000 -0.000000
LeftFoot -0.841375 13.628307 -16.974820
LeftToeBase -13.862729 -0.000000 0.000000
RightUpLeg -72.665200 3.516277 -1.712787
RightLeg 51.848115 -0.000000 -0.000000
RightFoot 5.700923 -14.452389 11.425927
RightToeBase -16.960687 -0.000000 0.000000
